<svg width="44" height="22" viewBox="0 0 44 22" fill="none" xmlns="http://www.w3.org/2000/svg">
<path d="M41.2496 4.4207e-07H30.2482C29.5188 4.4207e-07 28.8192 0.289731 28.3034 0.805457C27.7876 1.32118 27.4979 2.02066 27.4979 2.75C27.4979 3.47935 27.7876 4.17882 28.3034 4.69455C28.8192 5.21027 29.5188 5.5 30.2482 5.5H34.6101L24.7475 15.3613L15.6907 6.30566C15.4354 6.05024 15.1322 5.84763 14.7985 5.70939C14.4649 5.57116 14.1073 5.50001 13.7461 5.50001C13.3849 5.50001 13.0273 5.57116 12.6936 5.70939C12.36 5.84763 12.0568 6.05024 11.8015 6.30566L0.800076 17.3057C0.286708 17.8218 -0.00101025 18.5205 2.66542e-06 19.2484C0.00101558 19.9764 0.290677 20.6742 0.80548 21.1889C1.32028 21.7037 2.01821 21.9933 2.74625 21.9943C3.47429 21.9953 4.17303 21.7076 4.68926 21.1943L13.7461 12.1387L22.8029 21.1943C23.0582 21.4498 23.3614 21.6524 23.6951 21.7906C24.0287 21.9289 24.3863 22 24.7475 22C25.1087 22 25.4663 21.9289 25.8 21.7906C26.1336 21.6524 26.4368 21.4498 26.6921 21.1943L38.4993 9.38869V13.75C38.4993 14.4793 38.7891 15.1788 39.3049 15.6945C39.8206 16.2103 40.5202 16.5 41.2496 16.5C41.9791 16.5 42.6786 16.2103 43.1944 15.6945C43.7102 15.1788 44 14.4793 44 13.75V2.75C44.0002 2.38881 43.9292 2.03112 43.7911 1.69738C43.6529 1.36364 43.4503 1.0604 43.1949 0.805C42.9395 0.549598 42.6362 0.347042 42.3024 0.208915C41.9686 0.0707866 41.6109 -0.000204408 41.2496 4.4207e-07Z" fill="#333332"/>
</svg>
