<svg width="154" height="154" viewBox="0 0 154 154" fill="none" xmlns="http://www.w3.org/2000/svg">
<path d="M141.17 14.4375H120.312V4.8125C120.312 2.15119 118.161 0 115.5 0C112.839 0 110.688 2.15119 110.688 4.8125V14.4375H81.8125V4.8125C81.8125 2.15119 79.6565 0 77 0C74.3435 0 72.1875 2.15119 72.1875 4.8125V14.4375H43.3125V4.8125C43.3125 2.15119 41.1565 0 38.5 0C35.8435 0 33.6875 2.15119 33.6875 4.8125V14.4375H12.8349C5.74613 14.4375 0 20.1788 0 27.2676V141.165C0 148.254 5.74613 154 12.8349 154H141.17C148.259 154 154 148.254 154 141.165V27.2676C154 20.1788 148.259 14.4375 141.17 14.4375ZM144.375 141.165C144.375 142.936 142.936 144.375 141.17 144.375H12.8349C11.0639 144.375 9.625 142.936 9.625 141.165V27.2676C9.625 25.5014 11.0639 24.0625 12.8349 24.0625H33.6875V33.6875C33.6875 36.3488 35.8435 38.5 38.5 38.5C41.1565 38.5 43.3125 36.3488 43.3125 33.6875V24.0625H72.1875V33.6875C72.1875 36.3488 74.3435 38.5 77 38.5C79.6565 38.5 81.8125 36.3488 81.8125 33.6875V24.0625H110.688V33.6875C110.688 36.3488 112.839 38.5 115.5 38.5C118.161 38.5 120.312 36.3488 120.312 33.6875V24.0625H141.17C142.936 24.0625 144.375 25.5014 144.375 27.2676V141.165Z" fill="#333332"/>
<path d="M52.9375 57.75H33.6875V72.1875H52.9375V57.75Z" fill="#333332"/>
<path d="M52.9375 81.8125H33.6875V96.25H52.9375V81.8125Z" fill="#333332"/>
<path d="M52.9375 105.875H33.6875V120.312H52.9375V105.875Z" fill="#333332"/>
<path d="M86.625 105.875H67.375V120.312H86.625V105.875Z" fill="#333332"/>
<path d="M86.625 81.8125H67.375V96.25H86.625V81.8125Z" fill="#333332"/>
<path d="M86.625 57.75H67.375V72.1875H86.625V57.75Z" fill="#333332"/>
<path d="M120.312 105.875H101.062V120.312H120.312V105.875Z" fill="#333332"/>
<path d="M120.312 81.8125H101.062V96.25H120.312V81.8125Z" fill="#333332"/>
<path d="M120.312 57.75H101.062V72.1875H120.312V57.75Z" fill="#333332"/>
</svg>
