<svg width="20" height="20" viewBox="0 0 20 20" fill="none" xmlns="http://www.w3.org/2000/svg">
<path d="M2.5 15C2.00555 15 1.5222 15.1466 1.11108 15.4213C0.699953 15.696 0.379521 16.0865 0.190302 16.5433C0.00108322 17.0001 -0.0484251 17.5028 0.0480379 17.9877C0.144501 18.4727 0.382603 18.9181 0.732234 19.2678C1.08187 19.6174 1.52732 19.8555 2.01228 19.952C2.49723 20.0484 2.99989 19.9989 3.45671 19.8097C3.91352 19.6205 4.30397 19.3 4.57867 18.8889C4.85338 18.4778 5 17.9945 5 17.5C4.99934 16.8372 4.73574 16.2017 4.26704 15.733C3.79834 15.2643 3.16284 15.0007 2.5 15Z" fill="black"/>
<path d="M2.5 7.5C2.16848 7.5 1.85054 7.6317 1.61612 7.86612C1.3817 8.10054 1.25 8.41848 1.25 8.75C1.25 9.08152 1.3817 9.39946 1.61612 9.63388C1.85054 9.8683 2.16848 10 2.5 10C4.48846 10.0022 6.39485 10.793 7.80091 12.1991C9.20696 13.6051 9.99783 15.5115 10 17.5C10 17.8315 10.1317 18.1495 10.3661 18.3839C10.6005 18.6183 10.9185 18.75 11.25 18.75C11.5815 18.75 11.8995 18.6183 12.1339 18.3839C12.3683 18.1495 12.5 17.8315 12.5 17.5C12.4972 14.8487 11.4427 12.3068 9.56795 10.4321C7.6932 8.5573 5.1513 7.50282 2.5 7.5Z" fill="black"/>
<path d="M2.5 0C2.16848 0 1.85054 0.131696 1.61612 0.366116C1.3817 0.600537 1.25 0.918479 1.25 1.25C1.25 1.58152 1.3817 1.89946 1.61612 2.13388C1.85054 2.3683 2.16848 2.5 2.5 2.5C6.47691 2.50435 10.2897 4.08609 13.1018 6.8982C15.9139 9.7103 17.4957 13.5231 17.5 17.5C17.5 17.8315 17.6317 18.1495 17.8661 18.3839C18.1005 18.6183 18.4185 18.75 18.75 18.75C19.0815 18.75 19.3995 18.6183 19.6339 18.3839C19.8683 18.1495 20 17.8315 20 17.5C19.9946 12.8604 18.1491 8.41232 14.8684 5.13161C11.5877 1.85089 7.13963 0.00540895 2.5 0V0Z" fill="black"/>
</svg>
