<?xml version="1.0" encoding="utf-8"?>
<!-- Generator: Adobe Illustrator 25.0.0, SVG Export Plug-In . SVG Version: 6.00 Build 0)  -->
<svg version="1.1" id="Layer_1" xmlns="http://www.w3.org/2000/svg" xmlns:xlink="http://www.w3.org/1999/xlink" x="0px" y="0px"
	 viewBox="0 0 53 51" style="enable-background:new 0 0 53 51;" xml:space="preserve">
<style type="text/css">
	.st0{fill:url(#SVGID_1_);}
	.st1{fill:#FFFFFF;}
</style>
<linearGradient id="SVGID_1_" gradientUnits="userSpaceOnUse" x1="2.2439" y1="27.4629" x2="53" y2="27.4629" gradientTransform="matrix(1 0 0 -1 0 52)">
	<stop  offset="0" style="stop-color:#37CEA1"/>
	<stop  offset="1" style="stop-color:#33BF95"/>
</linearGradient>
<path class="st0" d="M8.5,8C17.9-1.4,53,0.2,53,0.2s-1.2,32.3-10,41.5C35.2,49.8,18,52.3,8.6,43C0.8,35.3-0.5,17,8.5,8z"/>
<path class="st1" d="M50.6,4.7C50.4,4.3,50,4,49.5,3.9c-0.4-0.1-0.9-0.1-1.3,0.1l-2.5,1.3L47,2.8c0.2-0.4,0.3-0.9,0.2-1.3
	C47,1,46.7,0.6,46.3,0.4S45.5,0,45,0s-0.9,0.2-1.2,0.6l-7.7,7.7c-0.2,0.2-0.3,0.4-0.4,0.6c-0.1,0.2-0.1,0.5-0.1,0.7v3.1l-13,12.9
	c-0.2,0.2-0.3,0.4-0.4,0.6s-0.1,0.5-0.1,0.7c0,0.3,0.1,0.5,0.1,0.7c0.1,0.2,0.2,0.4,0.4,0.6c0.2,0.2,0.4,0.3,0.6,0.4
	s0.5,0.1,0.7,0.1c0.3,0,0.5-0.1,0.7-0.1c0.2-0.1,0.4-0.2,0.6-0.4l12.9-13h3.1c0.3,0,0.5,0,0.7-0.1s0.4-0.2,0.6-0.4L50.2,7
	C50.8,6.9,51,6.4,51,6C51,5.5,50.9,5.1,50.6,4.7z"/>
<path class="st1" d="M20,24.2c0.1-0.3,0.2-0.6,0.3-0.9v-0.1c0.3-0.6,0.7-1.2,1.2-1.7l5.3-5.3c-0.4-0.1-0.8-0.1-1.3-0.1
	c-1.9,0-3.7,0.6-5.3,1.6c-1.6,1-2.8,2.5-3.5,4.3c-0.7,1.7-0.9,3.6-0.5,5.5c0.4,1.8,1.3,3.5,2.6,4.9c1.3,1.3,3,2.2,4.9,2.6
	c1.8,0.4,3.8,0.2,5.5-0.5s3.2-1.9,4.3-3.5c1-1.6,1.6-3.4,1.6-5.3c0-0.4-0.1-0.9-0.1-1.3l-5.3,5.3c-0.5,0.5-1.1,0.9-1.7,1.2h-0.1
	c-0.3,0.1-0.6,0.2-0.9,0.3h-0.2c-0.8,0.2-1.5,0.2-2.3,0h-0.2c-0.3-0.1-0.6-0.2-0.9-0.3h-0.1C22,30.3,21,29.3,20.4,28v-0.1
	c-0.1-0.3-0.2-0.6-0.3-0.9v-0.2c-0.2-0.8-0.2-1.5,0-2.3L20,24.2z"/>
<path class="st1" d="M33,9.7C30.7,8.6,28.1,8,25.5,8c-3.5,0-6.8,1-9.7,2.9s-5.1,4.7-6.4,7.9C8,22,7.7,25.5,8.3,28.9
	c0.7,3.4,2.3,6.5,4.8,9c2.4,2.4,5.6,4.1,9,4.8s6.9,0.3,10.1-1s5.9-3.6,7.9-6.4c1.9-3,2.9-6.3,2.9-9.8c0-2.6-0.6-5.2-1.7-7.5l-3,3
	c1,2.9,1,6.1,0,9s-3,5.4-5.6,7.1c-2.6,1.7-5.7,2.4-8.8,2c-3.1-0.3-5.9-1.7-8.1-3.9s-3.6-5-3.9-8.1s0.4-6.2,2-8.8
	c1.7-2.6,4.1-4.6,7.1-5.6s6.1-1,9,0L33,9.7z"/>
<path class="st1" d="M47.3,15.9c-0.6,0.6-1.2,1-2,1.3c1.1,2.6,1.7,5.4,1.7,8.3c0,4.3-1.3,8.4-3.6,12c-2.4,3.5-5.7,6.3-9.7,7.9
	c-3.9,1.6-8.3,2.1-12.5,1.2c-4.2-0.8-8-2.9-11-5.9s-5.1-6.9-5.9-11s-0.4-8.5,1.2-12.5c1.6-3.9,4.4-7.3,7.9-9.7s7.7-3.6,12-3.6
	c2.8,0,5.7,0.6,8.3,1.7c0.3-0.7,0.7-1.4,1.3-2l1.2-1.3C32.9,0.8,29.2,0,25.5,0c-5,0-10,1.5-14.2,4.3s-7.5,6.8-9.4,11.4
	C0,20.4-0.5,25.5,0.5,30.5s3.4,9.5,7,13.1s8.1,6,13.1,7c4.9,1,10.1,0.5,14.7-1.5s8.6-5.2,11.4-9.4c2.8-4.2,4.3-9.1,4.3-14.2
	c0-3.7-0.8-7.4-2.4-10.8L47.3,15.9z"/>
</svg>
