<svg width="26" height="19" viewBox="0 0 26 19" fill="none" xmlns="http://www.w3.org/2000/svg">
<path d="M25 6.15381C24.7348 6.15381 24.4804 6.25917 24.2929 6.4467C24.1054 6.63424 24 6.88859 24 7.15381V15.1538C24 15.419 23.8946 15.6734 23.7071 15.8609C23.5196 16.0485 23.2652 16.1538 23 16.1538H3C2.73478 16.1538 2.48043 16.0485 2.29289 15.8609C2.10536 15.6734 2 15.419 2 15.1538V7.15381C2 6.88859 1.89464 6.63424 1.70711 6.4467C1.51957 6.25917 1.26522 6.15381 1 6.15381C0.734784 6.15381 0.48043 6.25917 0.292893 6.4467C0.105357 6.63424 0 6.88859 0 7.15381V15.1538C0.000700208 15.9492 0.31723 16.7117 0.88 17.2738C1.44207 17.8366 2.20462 18.1531 3 18.1538H23C23.7954 18.1531 24.5579 17.8366 25.12 17.2738C25.6828 16.7117 25.9993 15.9492 26 15.1538V7.15381C26 6.88859 25.8946 6.63424 25.7071 6.4467C25.5196 6.25917 25.2652 6.15381 25 6.15381Z" fill="black"/>
<path d="M12.4001 11.9538C12.5732 12.0836 12.7837 12.1538 13.0001 12.1538C13.2164 12.1538 13.427 12.0836 13.6001 11.9538L25.4101 3.09381C25.5943 2.95488 25.7248 2.75651 25.7795 2.53233C25.8342 2.30815 25.8096 2.07196 25.7101 1.86381C25.5611 1.55613 25.3617 1.27558 25.1201 1.03381C24.558 0.471039 23.7954 0.154509 23.0001 0.153809H3.00006C2.20468 0.154509 1.44213 0.471039 0.880058 1.03381C0.638413 1.27558 0.438985 1.55613 0.290058 1.86381C0.190474 2.07196 0.165942 2.30815 0.220619 2.53233C0.275297 2.75651 0.40582 2.95488 0.590058 3.09381L12.4001 11.9538ZM3.00006 2.15381H23.0001C23.0928 2.1392 23.1873 2.1392 23.2801 2.15381L13.0001 9.90381L2.72006 2.15381C2.81282 2.1392 2.9073 2.1392 3.00006 2.15381Z" fill="black"/>
</svg>
