<svg width="133" height="178" viewBox="0 0 133 178" fill="none" xmlns="http://www.w3.org/2000/svg">
<path d="M66.2903 114.548L57.7742 123.065L49.2581 114.548V104.386L54.9355 103.194L66.2903 114.548Z" fill="#BC6829"/>
<path d="M83.3226 104.386V114.548L74.8065 123.065L66.2903 114.548L77.6452 103.194L83.3226 104.386Z" fill="#BC6829"/>
<path d="M63.4516 128.742L58.3419 146.598C43.4955 138.507 40.9407 108.531 40.7419 106.174L49.2581 104.386V114.549L57.7742 123.065L63.4516 128.742Z" fill="#E9EDF5"/>
<path d="M83.3226 104.386L91.8103 106.174C91.64 108.502 89.0852 138.507 74.2387 146.598L69.129 128.742L74.8064 123.065L83.3226 114.549V104.386Z" fill="#E9EDF5"/>
<path d="M69.1291 128.742L74.2387 146.597C71.7983 147.92 69.0663 148.613 66.2904 148.613C63.5145 148.613 60.7825 147.92 58.342 146.597L63.4517 128.742H69.1291Z" fill="#7E8596"/>
<path d="M74.8065 123.064L69.1291 128.742H63.4517L57.7742 123.064L66.2904 114.548L74.8065 123.064Z" fill="#7E8596"/>
<path d="M74.2387 146.598C89.0852 138.507 91.64 108.502 91.8103 106.174L131.581 114.549V177H66.2903V148.613C69.0684 148.631 71.8047 147.937 74.2387 146.598Z" fill="#BC6829"/>
<path d="M58.3419 146.598C60.7759 147.937 63.5123 148.631 66.2903 148.613V177H1V114.549L40.7419 106.174C40.9406 108.53 43.4955 138.507 58.3419 146.598Z" fill="#BC6829"/>
<path d="M91.8103 106.174C91.64 108.502 89.0852 138.507 74.2387 146.598C71.8047 147.937 69.0684 148.631 66.2903 148.613V159.968C69.0684 159.985 71.8047 159.292 74.2387 157.952C89.0852 149.862 91.64 119.857 91.8103 117.529L131.581 125.903V114.549L91.8103 106.174Z" fill="#D1813B"/>
<path d="M58.3419 146.598C43.4955 138.507 40.9406 108.53 40.7419 106.174L1 114.549V125.903L40.7419 117.529C40.9406 119.885 43.4955 149.862 58.3419 157.952C60.7759 159.292 63.5123 159.985 66.2903 159.968V148.613C63.5123 148.631 60.7759 147.937 58.3419 146.598Z" fill="#D1813B"/>
<path d="M43.5807 43.5807V66.2904C40.5692 66.2904 37.681 65.0941 35.5516 62.9646C33.4221 60.8352 32.2258 57.947 32.2258 54.9355C32.2258 51.924 33.4221 49.0359 35.5516 46.9064C37.681 44.777 40.5692 43.5807 43.5807 43.5807Z" fill="#EB975D"/>
<path d="M97.0336 46.902C98.6234 48.49 99.7062 50.5141 100.145 52.7179C100.584 54.9217 100.359 57.2061 99.4989 59.282C98.6388 61.358 97.182 63.132 95.3131 64.3796C93.4441 65.6271 91.2471 66.2921 89 66.2904V43.5807C92.0109 43.5861 94.8979 44.7796 97.0336 46.902Z" fill="#EB975D"/>
<path d="M77.6452 88.9998V103.193L66.2903 114.548L54.9355 103.193V88.9998L55.0206 88.8295C58.4493 90.8011 62.3352 91.8387 66.2903 91.8387C70.2454 91.8387 74.1313 90.8011 77.56 88.8295L77.6452 88.9998Z" fill="#FFB680"/>
<path d="M77.56 88.8295C74.1313 90.8011 70.2454 91.8387 66.2903 91.8387C62.3352 91.8387 58.4493 90.8011 55.0206 88.8295L54.9355 88.9998V97.5159L55.0206 97.3456C58.4493 99.3172 62.3352 100.355 66.2903 100.355C70.2454 100.355 74.1313 99.3172 77.56 97.3456L77.6452 97.5159V88.9998L77.56 88.8295Z" fill="#EB975D"/>
<path d="M89 66.2904V69.1291C89.0042 73.1085 87.9616 77.019 85.9768 80.4681C83.9921 83.9173 81.135 86.7836 77.6924 88.7796C74.2497 90.7756 70.3426 91.831 66.3632 91.8398C62.3838 91.8486 58.4721 90.8105 55.0207 88.8297C53.2644 87.8414 51.6505 86.619 50.2233 85.1962C45.9692 80.9312 43.5803 75.153 43.5807 69.1291V43.5807L52.0968 35.0646V43.5807L60.6129 35.0646V43.5807L69.1291 35.0646H80.4839L89 43.5807V66.2904Z" fill="#FFDAAA"/>
<path d="M80.4839 35.0646H69.1291L60.6129 43.5807V35.0646L52.0968 43.5807V35.0646L43.5807 43.5807V54.9355L52.0968 46.4194V54.9355L60.6129 46.4194V54.9355L69.1291 46.4194H80.4839L89 54.9355V43.5807L80.4839 35.0646Z" fill="#FFB680"/>
<path d="M100.355 35.0645V43.5806L97.5162 46.4194L97.0336 46.9019C94.8979 44.7796 92.0109 43.586 89 43.5806L80.4839 35.0645H69.1291L60.6129 43.5806V35.0645L52.0968 43.5806V35.0645L43.5807 43.5806C40.5698 43.586 37.6828 44.7796 35.5471 46.9019L35.0645 46.4194L32.2258 43.5806V9.51613H43.5807L35.0645 1H66.2903C75.3248 1 83.9893 4.58893 90.3776 10.9773C96.7659 17.3656 100.355 26.03 100.355 35.0645Z" fill="#414952"/>
<path d="M66.2903 1H35.0645L43.5806 9.51613H57.7742C66.8087 9.51613 75.4731 13.1051 81.8614 19.4934C88.2498 25.8817 91.8387 34.5462 91.8387 43.5806V43.9866C93.7961 44.4858 95.5877 45.4913 97.0336 46.9019L97.5161 46.4194L100.355 43.5806V35.0645C100.355 26.03 96.7659 17.3656 90.3776 10.9773C83.9892 4.58893 75.3248 1 66.2903 1Z" fill="#707789"/>
<path d="M89 43.5807V69.1291C89.0042 73.1085 87.9616 77.019 85.9768 80.4681C83.9921 83.9173 81.135 86.7836 77.6924 88.7796C74.2497 90.7756 70.3426 91.831 66.3632 91.8398C62.3838 91.8486 58.4721 90.8105 55.0207 88.8297C53.2644 87.8414 51.6505 86.619 50.2233 85.1962C45.9692 80.9312 43.5803 75.153 43.5807 69.1291V43.5807L52.0968 35.0646V43.5807L60.6129 35.0646V43.5807L69.1291 35.0646H80.4839L89 43.5807Z" stroke="black" stroke-width="2" stroke-linejoin="round"/>
<path d="M97.5162 46.4194L100.355 43.5806V35.0645C100.355 26.03 96.7659 17.3656 90.3776 10.9773C83.9893 4.58893 75.3248 1 66.2903 1" stroke="black" stroke-width="2" stroke-linejoin="round"/>
<path d="M89 66.2904C92.0115 66.2904 94.8996 65.0941 97.0291 62.9646C99.1585 60.8352 100.355 57.947 100.355 54.9355C100.355 51.924 99.1585 49.0359 97.0291 46.9064C94.8996 44.777 92.0115 43.5807 89 43.5807" stroke="black" stroke-width="2" stroke-linejoin="round"/>
<path d="M43.5807 43.5807C40.5692 43.5807 37.681 44.777 35.5516 46.9064C33.4221 49.0359 32.2258 51.924 32.2258 54.9355C32.2258 57.947 33.4221 60.8352 35.5516 62.9646C37.681 65.0941 40.5692 66.2904 43.5807 66.2904" stroke="black" stroke-width="2" stroke-linejoin="round"/>
<path d="M54.9355 89V103.194L49.2581 104.386L40.7419 106.174L1 114.548V177H18.0323H66.2903H114.548H131.581V114.548L91.8103 106.174L83.3226 104.386L77.6452 103.194V89" stroke="black" stroke-width="2" stroke-linejoin="round"/>
<path d="M54.9355 103.194L66.2903 114.548L77.6452 103.194" stroke="black" stroke-width="2" stroke-linejoin="round"/>
<path d="M18.0323 177V140.097" stroke="black" stroke-width="2" stroke-linejoin="round"/>
<path d="M114.548 177V140.097" stroke="black" stroke-width="2" stroke-linejoin="round"/>
<path d="M40.7419 106.032V106.174C40.9407 108.53 43.4955 138.507 58.3419 146.597C60.7824 147.92 63.5144 148.613 66.2903 148.613C69.0662 148.613 71.7982 147.92 74.2387 146.597C89.0852 138.507 91.64 108.502 91.8103 106.174C91.8267 106.128 91.8362 106.081 91.8387 106.032" stroke="black" stroke-width="2" stroke-linejoin="round"/>
<path d="M83.3226 103.194V104.386V114.548L74.8064 123.065L66.2903 114.548L57.7742 123.065L49.2581 114.548V104.386V103.194" stroke="black" stroke-width="2" stroke-linejoin="round"/>
<path d="M57.7742 123.064L63.4517 128.742H69.1291L74.8065 123.064" stroke="black" stroke-width="2" stroke-linejoin="round"/>
<path d="M63.4517 128.742L58.342 146.597L57.7742 148.613" stroke="black" stroke-width="2" stroke-linejoin="round"/>
<path d="M69.129 128.742L74.2387 146.597L74.8064 148.613" stroke="black" stroke-width="2" stroke-linejoin="round"/>
<path d="M66.2903 148.613V177" stroke="black" stroke-width="2" stroke-linejoin="round"/>
<path d="M66.2903 1H35.0645L43.5807 9.51613H32.2258V43.5806L35.0645 46.4194" stroke="black" stroke-width="2" stroke-linejoin="round"/>
</svg>
