<svg width="24" height="24" viewBox="0 0 24 24" fill="none" xmlns="http://www.w3.org/2000/svg">
<path d="M12.0001 16.8003C11.0508 16.8003 10.1227 16.5188 9.33336 15.9913C8.54399 15.4639 7.92876 14.7142 7.56546 13.8371C7.20215 12.96 7.1071 11.9949 7.29231 11.0638C7.47752 10.1327 7.93468 9.2774 8.60598 8.6061C9.27727 7.9348 10.1326 7.47764 11.0637 7.29243C11.9948 7.10722 12.9599 7.20228 13.837 7.56558C14.7141 7.92888 15.4638 8.54412 15.9912 9.33348C16.5186 10.1228 16.8002 11.0509 16.8002 12.0002C16.8002 13.2733 16.2944 14.4942 15.3943 15.3944C14.4941 16.2946 13.2732 16.8003 12.0001 16.8003ZM12.0001 8.80021C11.3672 8.80021 10.7485 8.98789 10.2223 9.33952C9.69604 9.69114 9.28588 10.1909 9.04368 10.7756C8.80148 11.3604 8.7381 12.0038 8.86158 12.6245C8.98505 13.2453 9.28983 13.8155 9.73736 14.263C10.1849 14.7105 10.7551 15.0153 11.3758 15.1388C11.9966 15.2623 12.64 15.1989 13.2247 14.9567C13.8094 14.7145 14.3092 14.3043 14.6608 13.7781C15.0125 13.2518 15.2002 12.6331 15.2002 12.0002C15.2002 11.1515 14.863 10.3376 14.2629 9.73748C13.6628 9.13736 12.8488 8.80021 12.0001 8.80021Z" fill="#101820"/>
<path d="M16.0002 24.0001H8.00008C7.15138 24.0001 6.33744 23.6629 5.73732 23.0628C5.13719 22.4627 4.80005 21.6487 4.80005 20.8V18.76C4.80149 18.6012 4.85019 18.4463 4.93995 18.3153C5.02971 18.1842 5.15646 18.0828 5.30405 18.024L8.21608 16.856C8.31479 16.8122 8.42134 16.7889 8.5293 16.7874C8.63727 16.7859 8.74441 16.8063 8.84429 16.8473C8.94417 16.8884 9.03471 16.9492 9.11046 17.0261C9.1862 17.1031 9.24559 17.1946 9.28504 17.2951C9.32448 17.3956 9.34318 17.5031 9.33999 17.611C9.3368 17.7189 9.3118 17.8251 9.26649 17.9231C9.22118 18.0211 9.1565 18.1089 9.07634 18.1813C8.99618 18.2536 8.90221 18.309 8.80009 18.344L6.40006 19.304V20.8C6.40006 21.2244 6.56864 21.6314 6.8687 21.9314C7.16876 22.2315 7.57573 22.4001 8.00008 22.4001H16.0002C16.4245 22.4001 16.8315 22.2315 17.1315 21.9314C17.4316 21.6314 17.6002 21.2244 17.6002 20.8V19.304L15.2001 18.344C15.0028 18.2655 14.8448 18.1118 14.7608 17.9168C14.6767 17.7218 14.6736 17.5013 14.7521 17.304C14.8306 17.1067 14.9843 16.9486 15.1794 16.8646C15.3744 16.7806 15.5948 16.7775 15.7922 16.856L18.7042 18.024C18.8518 18.0828 18.9785 18.1842 19.0683 18.3153C19.158 18.4463 19.2067 18.6012 19.2082 18.76V20.8C19.2082 21.221 19.1252 21.6377 18.9638 22.0265C18.8025 22.4153 18.5661 22.7684 18.2681 23.0656C17.9701 23.3629 17.6164 23.5984 17.2272 23.7588C16.838 23.9191 16.4211 24.0011 16.0002 24.0001Z" fill="#101820"/>
<path d="M6.40006 8.00008C5.60893 8.00008 4.83556 7.76548 4.17776 7.32595C3.51996 6.88642 3.00726 6.2617 2.70451 5.53079C2.40176 4.79988 2.32254 3.9956 2.47689 3.21967C2.63123 2.44374 3.01219 1.731 3.57161 1.17159C4.13103 0.61217 4.84376 0.231204 5.6197 0.0768614C6.39563 -0.0774809 7.1999 0.00173315 7.93081 0.304487C8.66172 0.60724 9.28644 1.11993 9.72597 1.77774C10.1655 2.43554 10.4001 3.20891 10.4001 4.00004C10.4001 4.52533 10.2966 5.04548 10.0956 5.53079C9.8946 6.0161 9.59996 6.45706 9.22852 6.82849C8.85708 7.19993 8.41612 7.49457 7.93081 7.69559C7.44551 7.89661 6.92536 8.00008 6.40006 8.00008ZM6.40006 1.60002C5.92538 1.60002 5.46136 1.74078 5.06668 2.00449C4.672 2.26821 4.36438 2.64304 4.18273 3.08159C4.00108 3.52014 3.95355 4.0027 4.04616 4.46826C4.13876 4.93382 4.36734 5.36146 4.70299 5.69711C5.03864 6.03276 5.46628 6.26134 5.93184 6.35395C6.3974 6.44655 6.87997 6.39902 7.31851 6.21737C7.75706 6.03572 8.13189 5.7281 8.39561 5.33342C8.65933 4.93874 8.80009 4.47472 8.80009 4.00004C8.80009 3.36351 8.54723 2.75306 8.09714 2.30297C7.64705 1.85288 7.03659 1.60002 6.40006 1.60002Z" fill="#101820"/>
<path d="M5.60005 14.712H3.20003C2.35133 14.712 1.53739 14.3749 0.937268 13.7748C0.337146 13.1746 3.7504e-07 12.3607 3.7504e-07 11.512V10.112C-0.000154732 9.95176 0.0478047 9.79518 0.137666 9.66252C0.227528 9.52987 0.355151 9.42726 0.504005 9.36797L3.05603 8.36797C3.25038 8.29081 3.46722 8.29283 3.66011 8.37357C3.853 8.45432 4.0066 8.60737 4.08804 8.79997C4.12701 8.89766 4.14633 9.00208 4.1449 9.10725C4.14347 9.21242 4.12132 9.31628 4.0797 9.41288C4.03809 9.50948 3.97784 9.59692 3.9024 9.67021C3.82695 9.74349 3.7378 9.80119 3.64003 9.83998L1.60002 10.656V11.512C1.60002 11.9363 1.76859 12.3433 2.06865 12.6434C2.36871 12.9434 2.77568 13.112 3.20003 13.112H5.60005C5.81223 13.112 6.01571 13.1963 6.16574 13.3463C6.31577 13.4964 6.40006 13.6998 6.40006 13.912C6.40006 14.1242 6.31577 14.3277 6.16574 14.4777C6.01571 14.6277 5.81223 14.712 5.60005 14.712Z" fill="#101820"/>
<path d="M17.6001 8.00008C16.809 8.00008 16.0356 7.76548 15.3778 7.32595C14.72 6.88642 14.2073 6.2617 13.9046 5.53079C13.6018 4.79988 13.5226 3.9956 13.677 3.21967C13.8313 2.44374 14.2123 1.731 14.7717 1.17159C15.3311 0.61217 16.0438 0.231204 16.8198 0.0768614C17.5957 -0.0774809 18.4 0.00173315 19.1309 0.304487C19.8618 0.60724 20.4865 1.11993 20.926 1.77774C21.3656 2.43554 21.6002 3.20891 21.6002 4.00004C21.6002 5.06092 21.1787 6.07834 20.4286 6.82849C19.6784 7.57865 18.661 8.00008 17.6001 8.00008ZM17.6001 1.60002C17.1255 1.60002 16.6614 1.74078 16.2668 2.00449C15.8721 2.26821 15.5645 2.64304 15.3828 3.08159C15.2012 3.52014 15.1536 4.0027 15.2462 4.46826C15.3388 4.93382 15.5674 5.36146 15.9031 5.69711C16.2387 6.03276 16.6664 6.26134 17.1319 6.35395C17.5975 6.44655 18.08 6.39902 18.5186 6.21737C18.9571 6.03572 19.332 5.7281 19.5957 5.33342C19.8594 4.93874 20.0002 4.47472 20.0002 4.00004C20.0002 3.36351 19.7473 2.75306 19.2972 2.30297C18.8471 1.85288 18.2367 1.60002 17.6001 1.60002Z" fill="#101820"/>
<path d="M20.8003 14.7121H18.4002C18.1881 14.7121 17.9846 14.6278 17.8345 14.4778C17.6845 14.3278 17.6002 14.1243 17.6002 13.9121C17.6002 13.6999 17.6845 13.4964 17.8345 13.3464C17.9846 13.1964 18.1881 13.1121 18.4002 13.1121H20.8003C21.2246 13.1121 21.6316 12.9435 21.9316 12.6435C22.2317 12.3434 22.4003 11.9364 22.4003 11.5121V10.6561L20.3602 9.85605C20.2625 9.81726 20.1733 9.75957 20.0979 9.68628C20.0224 9.61299 19.9622 9.52555 19.9206 9.42895C19.879 9.33235 19.8568 9.2285 19.8554 9.12333C19.854 9.01816 19.8733 8.91374 19.9122 8.81604C19.9891 8.6191 20.1408 8.46058 20.3342 8.37514C20.5275 8.28969 20.7469 8.28426 20.9443 8.36004L23.4963 9.36005C23.6451 9.41933 23.7728 9.52195 23.8626 9.6546C23.9525 9.78725 24.0004 9.94383 24.0003 10.1041V11.5041C24.0013 11.925 23.9193 12.342 23.759 12.7311C23.5986 13.1203 23.3631 13.474 23.0658 13.772C22.7686 14.07 22.4155 14.3064 22.0267 14.4677C21.6379 14.6291 21.2212 14.7121 20.8003 14.7121Z" fill="#101820"/>
</svg>
