<svg width="48" height="56" viewBox="0 0 48 56" fill="none" xmlns="http://www.w3.org/2000/svg">
<path d="M24 28C26.7689 28 29.4757 27.1789 31.778 25.6406C34.0803 24.1022 35.8747 21.9157 36.9343 19.3576C37.9939 16.7994 38.2712 13.9845 37.731 11.2687C37.1908 8.55301 35.8574 6.05844 33.8995 4.10051C31.9416 2.14258 29.447 0.809205 26.7313 0.269012C24.0155 -0.271181 21.2006 0.00606596 18.6424 1.06569C16.0843 2.12532 13.8978 3.91973 12.3594 6.22202C10.8211 8.52431 10 11.2311 10 14C10 17.713 11.475 21.274 14.1005 23.8995C16.726 26.525 20.287 28 24 28ZM24 4.00001C25.9778 4.00001 27.9112 4.58649 29.5557 5.68531C31.2002 6.78412 32.4819 8.34591 33.2388 10.1732C33.9957 12.0004 34.1937 14.0111 33.8078 15.9509C33.422 17.8907 32.4696 19.6725 31.0711 21.0711C29.6725 22.4696 27.8907 23.422 25.9509 23.8079C24.0111 24.1937 22.0004 23.9957 20.1732 23.2388C18.3459 22.4819 16.7841 21.2002 15.6853 19.5557C14.5865 17.9112 14 15.9778 14 14C14 11.3478 15.0536 8.8043 16.9289 6.92894C18.8043 5.05357 21.3478 4.00001 24 4.00001Z" fill="white"/>
<path d="M26 32H22C16.1652 32 10.5695 34.3178 6.44365 38.4436C2.31785 42.5694 0 48.1652 0 54C0 54.5304 0.210714 55.0391 0.585787 55.4142C0.96086 55.7893 1.46957 56 2 56H46C46.5304 56 47.0391 55.7893 47.4142 55.4142C47.7893 55.0391 48 54.5304 48 54C48 48.1652 45.6822 42.5694 41.5564 38.4436C37.4305 34.3178 31.8348 32 26 32ZM4.12 52C4.61179 47.6013 6.70702 43.538 10.0054 40.5864C13.3037 37.6349 17.5739 36.0021 22 36H26C30.4261 36.0021 34.6963 37.6349 37.9946 40.5864C41.293 43.538 43.3882 47.6013 43.88 52H4.12Z" fill="white"/>
</svg>
