<svg width="24" height="24" viewBox="0 0 24 24" fill="none" xmlns="http://www.w3.org/2000/svg">
<path d="M13.7775 23.9999H10.1798C9.95901 24 9.74599 23.9183 9.58182 23.7706C9.41765 23.623 9.31394 23.4198 9.29068 23.2002L9.0243 20.6919C8.65243 20.5653 8.28914 20.4148 7.93671 20.2414L5.97667 21.8266C5.80512 21.9647 5.5886 22.0347 5.36864 22.023C5.14868 22.0114 4.94077 21.9189 4.78479 21.7634L2.24073 19.2193C2.0852 19.0633 1.99274 18.8554 1.98109 18.6355C1.96943 18.4155 2.03939 18.199 2.17756 18.0274L3.76335 16.065C3.58957 15.7127 3.43888 15.3494 3.31223 14.9774L0.799749 14.7093C0.580268 14.686 0.377146 14.5824 0.229494 14.4183C0.0818407 14.2543 9.64458e-05 14.0414 0 13.8207V10.2224C9.64458e-05 10.0017 0.0818407 9.78886 0.229494 9.62481C0.377146 9.46077 0.580268 9.35714 0.799749 9.3339L3.30805 9.06751C3.43471 8.69559 3.5854 8.3323 3.75918 7.97992L2.17339 6.0175C2.03522 5.84595 1.96526 5.62943 1.97692 5.40947C1.98857 5.18951 2.08103 4.9816 2.23656 4.82562L4.78062 2.28156C4.9366 2.12603 5.14451 2.03358 5.36447 2.02192C5.58443 2.01026 5.80095 2.08022 5.9725 2.21839L7.93492 3.80359C8.28735 3.6301 8.65064 3.47961 9.02251 3.35306L9.28889 0.844752C9.31177 0.624539 9.41556 0.420651 9.58015 0.272574C9.74474 0.124497 9.95842 0.0427676 10.1798 0.0432147H13.7775C13.9983 0.043164 14.2113 0.124842 14.3755 0.272509C14.5397 0.420176 14.6434 0.62338 14.6666 0.842964L14.9324 3.35127C15.3045 3.47782 15.668 3.62831 16.0206 3.8018L17.9824 2.2166C18.154 2.07844 18.3705 2.00847 18.5905 2.02013C18.8104 2.03179 19.0183 2.12425 19.1743 2.27977L21.7184 4.82383C21.8739 4.97981 21.9664 5.18773 21.978 5.40769C21.9897 5.62765 21.9197 5.84416 21.7816 6.01571L20.1958 7.97814C20.3693 8.33062 20.52 8.6939 20.6469 9.06572L23.1552 9.33211C23.3746 9.35549 23.5775 9.45918 23.7251 9.62321C23.8726 9.78724 23.9543 10 23.9543 10.2207V13.8189C23.9548 14.0395 23.8736 14.2524 23.7266 14.4168C23.5795 14.5811 23.3768 14.6853 23.1576 14.7093L20.6493 14.9756C20.5224 15.3475 20.3717 15.7107 20.1981 16.0632L21.7839 18.0257C21.9221 18.1972 21.9921 18.4137 21.9804 18.6337C21.9688 18.8536 21.8763 19.0616 21.7208 19.2175L19.1767 21.7634C19.0207 21.9189 18.8128 22.0114 18.5929 22.023C18.3729 22.0347 18.1564 21.9647 17.9848 21.8266L16.023 20.2414C15.6704 20.4148 15.3069 20.5653 14.9348 20.6919L14.669 23.2002C14.6457 23.4202 14.5417 23.6237 14.377 23.7714C14.2123 23.9192 13.9987 24.0006 13.7775 23.9999ZM10.9826 22.2121H12.9724L13.2161 19.9142C13.2353 19.7343 13.3085 19.5645 13.4262 19.4271C13.5439 19.2898 13.7004 19.1913 13.8752 19.1448C14.5049 18.9769 15.1093 18.7258 15.6726 18.3981C15.8294 18.3067 16.0103 18.2653 16.1913 18.2792C16.3723 18.2932 16.5447 18.3619 16.6857 18.4762L18.483 19.9285L19.89 18.5215L18.4354 16.7295C18.321 16.5885 18.2523 16.4161 18.2384 16.2351C18.2244 16.0541 18.2659 15.8732 18.3573 15.7164C18.6843 15.1535 18.9346 14.5494 19.1016 13.9202C19.1482 13.7453 19.2467 13.5887 19.3842 13.471C19.5216 13.3533 19.6916 13.2801 19.8716 13.2611L22.1689 13.0168V11.027L19.8716 10.7826C19.6916 10.7636 19.5216 10.6904 19.3842 10.5727C19.2467 10.455 19.1482 10.2984 19.1016 10.1235C18.9347 9.49411 18.6843 8.88984 18.3573 8.32676C18.2659 8.16994 18.2244 7.98901 18.2384 7.80804C18.2523 7.62707 18.321 7.45464 18.4354 7.31366L19.8877 5.51631L18.4806 4.1093L16.6833 5.56161C16.5423 5.67593 16.3699 5.74464 16.1889 5.75858C16.008 5.77253 15.827 5.73105 15.6702 5.63967C15.1072 5.31291 14.5032 5.0626 13.874 4.89535C13.6992 4.84885 13.5427 4.75042 13.425 4.61305C13.3073 4.47569 13.2341 4.30586 13.2149 4.12599L12.9736 1.83103H10.9826L10.7388 4.12897C10.7196 4.30891 10.6463 4.4788 10.5285 4.61617C10.4107 4.75354 10.254 4.85193 10.0791 4.89833C9.45044 5.06634 8.847 5.31746 8.28474 5.64504C8.12791 5.73642 7.94699 5.77789 7.76602 5.76394C7.58505 5.75 7.41261 5.6813 7.27164 5.56697L5.47608 4.11228L4.06966 5.51929L5.52256 7.31664C5.6368 7.45768 5.70539 7.63015 5.71923 7.81111C5.73307 7.99208 5.69149 8.17297 5.60003 8.32974C5.27353 8.89288 5.02323 9.49688 4.85571 10.1259C4.80921 10.3007 4.71078 10.4573 4.57341 10.575C4.43605 10.6926 4.26622 10.7659 4.08635 10.785L1.78841 11.0293V13.0186L4.08635 13.2629C4.26622 13.282 4.43605 13.3553 4.57341 13.473C4.71078 13.5906 4.80921 13.7472 4.85571 13.922C5.02319 14.5504 5.27329 15.1538 5.59944 15.7164C5.6909 15.8732 5.73247 16.0541 5.71864 16.235C5.7048 16.416 5.6362 16.5885 5.52197 16.7295L4.06966 18.5239L5.47668 19.9309L7.27462 18.4786C7.41559 18.3642 7.58803 18.2955 7.769 18.2816C7.94997 18.2677 8.13089 18.3091 8.28772 18.4005C8.85048 18.7274 9.45432 18.9777 10.0833 19.1448C10.2582 19.1912 10.4149 19.2896 10.5327 19.427C10.6505 19.5644 10.7238 19.7342 10.743 19.9142L10.9826 22.2121Z" fill="black"/>
<path d="M11.9783 17.4659C10.9015 17.4658 9.84895 17.1464 8.95369 16.548C8.05842 15.9497 7.36068 15.0994 6.94869 14.1045C6.5367 13.1096 6.42897 12.015 6.63911 10.9589C6.84926 9.90278 7.36784 8.93272 8.12929 8.17135C8.89074 7.40998 9.86086 6.89151 10.917 6.68148C11.9731 6.47145 13.0678 6.5793 14.0626 6.9914C15.0574 7.4035 15.9077 8.10133 16.5059 8.99666C17.1041 9.89199 17.4234 10.9446 17.4234 12.0214C17.4218 13.465 16.8476 14.849 15.8268 15.8697C14.806 16.8904 13.4219 17.4645 11.9783 17.4659ZM11.9783 8.36472C11.2551 8.36484 10.5482 8.5794 9.94695 8.98127C9.34569 9.38315 8.87709 9.95428 8.60042 10.6225C8.32375 11.2906 8.25142 12.0259 8.39258 12.7351C8.53374 13.4444 8.88205 14.0959 9.39347 14.6073C9.90489 15.1186 10.5564 15.4668 11.2658 15.6079C11.9751 15.7489 12.7103 15.6765 13.3784 15.3997C14.0465 15.1229 14.6176 14.6542 15.0194 14.0529C15.4212 13.4516 15.6356 12.7446 15.6356 12.0214C15.6345 11.0518 15.2488 10.1223 14.5632 9.43675C13.8775 8.75121 12.9479 8.36567 11.9783 8.36472Z" fill="black"/>
</svg>
