<svg width="75" height="75" viewBox="0 0 75 75" fill="none" xmlns="http://www.w3.org/2000/svg">
<path d="M68.8973 69.5121H6.12895C5.34123 69.5121 4.68799 68.8589 4.68799 68.0712V5.30278C4.68799 4.51505 5.34123 3.86182 6.12895 3.86182C6.91668 3.86182 7.56992 4.51505 7.56992 5.30278V66.611H68.8781C69.6658 66.611 70.3191 67.2642 70.3191 68.0519C70.3191 68.8397 69.6851 69.5121 68.8973 69.5121Z" fill="white"/>
<path d="M68.0712 74.1999V61.9421L74.2001 68.071L68.0712 74.1999Z" fill="white"/>
<path d="M0 6.1289H12.2578L6.1289 0L0 6.1289Z" fill="white"/>
<path d="M23.9392 63.0182H12.9878C12.2001 63.0182 11.5469 62.3649 11.5469 61.5772V25.7644C11.5469 24.9767 12.2001 24.3235 12.9878 24.3235H23.9392C24.7269 24.3235 25.3801 24.9767 25.3801 25.7644V61.5772C25.3801 62.3841 24.7269 63.0182 23.9392 63.0182ZM14.4288 60.1362H22.4982V27.2054H14.4288V60.1362Z" fill="white"/>
<path d="M44.0935 63.0181H33.1421C32.3544 63.0181 31.7012 62.3649 31.7012 61.5772V46.2261C31.7012 45.4384 32.3544 44.7852 33.1421 44.7852H44.0935C44.8812 44.7852 45.5344 45.4384 45.5344 46.2261V61.5772C45.5344 62.3841 44.9004 63.0181 44.0935 63.0181ZM34.5831 60.1362H42.6525V47.6671H34.5831V60.1362Z" fill="white"/>
<path d="M64.2669 63.0181H53.3156C52.5279 63.0181 51.8746 62.3648 51.8746 61.5771V38.1567C51.8746 37.3689 52.5279 36.7157 53.3156 36.7157H64.2669C65.0546 36.7157 65.7079 37.3689 65.7079 38.1567V61.5771C65.7079 62.3841 65.0546 63.0181 64.2669 63.0181ZM54.7566 60.1362H62.826V39.5976H54.7566V60.1362Z" fill="white"/>
<path d="M70.3383 31.5283C70.0694 31.5283 69.7812 31.4514 69.5314 31.2785L53.2965 20.3848L40.9427 28.4158C40.3663 28.8001 39.5786 28.704 39.1175 28.1853L24.5926 12.7381C24.0546 12.1617 24.0738 11.2395 24.6502 10.7016C25.2266 10.1636 26.1488 10.1828 26.6868 10.7592L40.3855 25.3225L52.528 17.4261C53.0084 17.1187 53.6424 17.1187 54.1227 17.4453L71.1453 28.8769C71.7985 29.3188 71.9907 30.2218 71.5295 30.8751C71.2606 31.317 70.7995 31.5283 70.3383 31.5283Z" fill="white"/>
<path d="M21.7297 16.5616L30.6637 8.16554L21.9987 7.91577L21.7297 16.5616Z" fill="white"/>
</svg>
