<svg width="118" height="192" viewBox="0 0 118 192" fill="none" xmlns="http://www.w3.org/2000/svg">
<path d="M40.6842 5.88416V43.7368H31.5263V13.3936C34.1538 10.4128 37.2464 7.87682 40.6842 5.88416Z" fill="#7E8596"/>
<path d="M101.737 28.4736C101.742 30.0914 102.386 31.6415 103.53 32.7854C104.674 33.9293 106.224 34.5741 107.842 34.5789V43.7368H95.6315V37.6315C95.6373 34.5419 95.2474 31.4642 94.4715 28.4736H101.737Z" fill="#7E8596"/>
<path d="M86.4737 13.3936V43.7368H77.3158V5.88416C80.7536 7.87682 83.8462 10.4128 86.4737 13.3936Z" fill="#7E8596"/>
<path d="M22.3684 43.7368H31.5263H40.6842H77.3158H86.4737H95.6315H101.737V52.8947H95.6315H83.421H34.579H22.3684H16.2632V43.7368H22.3684Z" fill="#AFB4C8"/>
<path d="M31.5263 13.3938V43.7369H22.3684V37.6317C22.3446 28.7026 25.6039 20.0762 31.5263 13.3938Z" fill="#414952"/>
<path d="M95.6315 37.6317V43.7369H86.4736V13.3938C92.3783 20.0869 95.635 28.7063 95.6315 37.6317Z" fill="#414952"/>
<path d="M77.3158 5.88421V43.7368H40.6842V5.88421C46.2579 2.68398 52.5729 1 59 1C65.4271 1 71.742 2.68398 77.3158 5.88421Z" fill="#414952"/>
<path d="M107.842 34.5789C111.214 34.5789 113.947 31.8455 113.947 28.4737C113.947 25.1018 111.214 22.3684 107.842 22.3684C104.47 22.3684 101.737 25.1018 101.737 28.4737C101.737 31.8455 104.47 34.5789 107.842 34.5789Z" fill="#4A98F7"/>
<path d="M74.2631 159.737V168.895H43.7368V159.737V156.684H74.2631V159.737Z" fill="#AFB4C8"/>
<path d="M117 133.026V190.263H95.6315V178.053H104.789V147.526H98.6842V135.316H95.6315V118.71L107.293 121.06C110.041 121.632 112.508 123.135 114.276 125.315C116.045 127.496 117.007 130.219 117 133.026Z" fill="#414952"/>
<path d="M95.6315 52.8947L101.737 101.737L74.9652 95.7841C75.4245 95.4119 75.8627 95.0144 76.2779 94.5936C80.8526 90.0072 83.4214 83.7936 83.421 77.3157L83.8179 74.2631H86.4737C88.9025 74.2631 91.2318 73.2982 92.9493 71.5808C94.6667 69.8633 95.6315 67.534 95.6315 65.1052C95.6315 62.6763 94.6667 60.347 92.9493 58.6296C91.2318 56.9121 88.9025 55.9473 86.4737 55.9473H86.1073L86.4737 52.8947H95.6315Z" fill="#CC9F56"/>
<path d="M98.6842 135.316V147.526H80.3684V135.316H83.421H95.6315H98.6842Z" fill="#E9EDF5"/>
<path d="M95.6315 178.052H83.421V190.263H95.6315V178.052Z" fill="#AFB4C8"/>
<path d="M95.6315 118.709V135.316H83.421V116.237L95.6315 118.709Z" fill="#AFB4C8"/>
<path d="M86.4736 55.9473C88.9025 55.9473 91.2318 56.9121 92.9492 58.6295C94.6667 60.347 95.6315 62.6763 95.6315 65.1052C95.6315 67.534 94.6667 69.8633 92.9492 71.5808C91.2318 73.2982 88.9025 74.263 86.4736 74.263H83.8179L86.1073 55.9473H86.4736Z" fill="#FFB680"/>
<path d="M86.1073 55.9473L83.8179 74.2631H83.421H71.2105L65.1052 68.1578H52.8947L46.7895 74.2631H34.579H34.2126L31.9232 55.9473L31.5263 52.8947H86.4737L86.1073 55.9473Z" fill="#FFDAAA"/>
<path d="M32.3047 58.9999H85.7258L86.1073 55.9473L86.4737 52.8947H31.5263L31.9232 55.9473L32.3047 58.9999Z" fill="#FFB680"/>
<path d="M74.9652 95.7841C73.7819 96.822 72.4927 97.7327 71.1189 98.501C67.4319 100.621 63.2531 101.737 59 101.737C54.7468 101.737 50.5681 100.621 46.8811 98.501C45.5073 97.7327 44.2181 96.822 43.0347 95.7841C40.3746 93.4995 38.2412 90.6655 36.7814 87.4773C35.3217 84.289 34.5703 80.8223 34.579 77.3157L34.2126 74.2631H46.7895L52.8947 68.1578H65.1052L71.2105 74.2631H83.8179L83.421 77.3157C83.4214 83.7936 80.8526 90.0072 76.2779 94.5936C75.8627 95.0145 75.4245 95.4119 74.9652 95.7841Z" fill="#7E8596"/>
<path d="M83.421 178.052V190.263H34.579V178.052H43.7368V168.895H74.2631V178.052H83.421Z" fill="#414952"/>
<path d="M59 117H65.1052L71.2105 110.895L71.5463 110.803C71.9053 111.837 72.5375 112.755 73.3759 113.459C74.2143 114.163 75.2276 114.627 76.3084 114.802L83.421 116.237V135.316H80.3684V147.526H74.2631V156.684H43.7368V147.526H37.6316V135.316H34.579V116.237L41.6916 114.802C42.7724 114.627 43.7857 114.163 44.6241 113.459C45.4625 112.755 46.0947 111.837 46.4537 110.803L46.7895 110.895L52.8947 117H59Z" fill="#414952"/>
<path d="M71.5463 110.803L71.2105 110.894L65.1052 117H52.8947L46.7895 110.894L46.4537 110.803C46.6738 110.154 46.7872 109.473 46.7895 108.788V98.6839L46.8811 98.5007C50.5681 100.621 54.7468 101.737 59 101.737C63.2532 101.737 67.4319 100.621 71.1189 98.5007L71.2105 98.6839V108.788C71.2128 109.473 71.3262 110.154 71.5463 110.803Z" fill="#FFB680"/>
<path d="M46.7895 108.789C46.7872 109.474 46.6738 110.154 46.4537 110.803L46.7895 110.895V108.789Z" fill="#EB975D"/>
<path d="M59 110.894C63.2533 110.896 67.4324 109.78 71.1189 107.659L71.2105 107.842V98.6839L71.1189 98.5007C67.4319 100.621 63.2532 101.737 59 101.737C54.7468 101.737 50.5681 100.621 46.8811 98.5007L46.7895 98.6839V107.842L46.8811 107.659C50.5676 109.78 54.7467 110.896 59 110.894Z" fill="#EB975D"/>
<path d="M71.2105 110.895L71.5463 110.803C71.3262 110.154 71.2128 109.474 71.2105 108.789V110.895Z" fill="#EB975D"/>
<path d="M43.0347 95.7841L16.2632 101.737L22.3684 52.8947H31.5263L31.9232 55.9473H31.5263C29.0975 55.9473 26.7682 56.9121 25.0507 58.6296C23.3333 60.347 22.3684 62.6763 22.3684 65.1052C22.3684 67.534 23.3333 69.8633 25.0507 71.5808C26.7682 73.2982 29.0975 74.2631 31.5263 74.2631H34.2126L34.579 77.3157C34.5703 80.8222 35.3217 84.289 36.7814 87.4772C38.2412 90.6655 40.3746 93.4995 43.0347 95.7841Z" fill="#CC9F56"/>
<path d="M37.6316 135.316V147.526H19.3158V135.316H22.3684H34.579H37.6316Z" fill="#E9EDF5"/>
<path d="M34.579 178.052H22.3684V190.263H34.579V178.052Z" fill="#AFB4C8"/>
<path d="M34.579 116.237V135.316H22.3684V118.709L34.579 116.237Z" fill="#AFB4C8"/>
<path d="M34.2126 74.263H31.5263C29.0975 74.263 26.7682 73.2982 25.0507 71.5808C23.3333 69.8633 22.3684 67.534 22.3684 65.1052C22.3684 62.6763 23.3333 60.347 25.0507 58.6295C26.7682 56.9121 29.0975 55.9473 31.5263 55.9473H31.9232L34.2126 74.263Z" fill="#FFB680"/>
<path d="M22.3684 178.053V190.263H1.00004V133.026C0.99313 130.219 1.95519 127.496 3.72375 125.315C5.49232 123.135 7.95905 121.632 10.7074 121.06L22.3684 118.71V135.316H19.3158V147.526H13.2106V178.053H22.3684Z" fill="#414952"/>
<path d="M43.7368 147.526V159.737L28.4737 162.789L13.2106 159.737V156.684V147.526H19.3158H37.6316H43.7368Z" fill="#AFB4C8"/>
<path d="M43.7368 159.737V178.052H34.579H22.3684H13.2106V168.895V159.737L28.4737 162.789L43.7368 159.737Z" fill="#7E8596"/>
<path d="M104.789 147.526V159.737L89.5263 162.789L74.2631 159.737V156.684V147.526H80.3684H98.6842H104.789Z" fill="#AFB4C8"/>
<path d="M104.789 159.737V178.052H95.6315H83.421H74.2631V168.895V159.737L89.5263 162.789L104.789 159.737Z" fill="#7E8596"/>
<path d="M95.6315 43.7368V37.6316C95.635 28.7061 92.3783 20.0868 86.4737 13.3937C83.8462 10.4128 80.7536 7.87687 77.3158 5.88421C71.742 2.68398 65.4271 1 59 1C52.5729 1 46.2579 2.68398 40.6842 5.88421C37.2464 7.87687 34.1538 10.4128 31.5263 13.3937C25.6039 20.0761 22.3446 28.7024 22.3684 37.6316V43.7368H95.6315Z" stroke="black" stroke-width="2" stroke-linejoin="round"/>
<path d="M22.3684 43.7368H16.2632V52.8947H22.3684H31.5263H86.4737H95.6315H101.737V43.7368H95.6315" stroke="black" stroke-width="2" stroke-linejoin="round"/>
<path d="M107.842 34.5789C111.214 34.5789 113.947 31.8455 113.947 28.4737C113.947 25.1018 111.214 22.3684 107.842 22.3684C104.47 22.3684 101.737 25.1018 101.737 28.4737C101.737 31.8455 104.47 34.5789 107.842 34.5789Z" stroke="black" stroke-width="2" stroke-linejoin="round"/>
<path d="M101.737 28.4736H94.4715H92.5789" stroke="black" stroke-width="2" stroke-linejoin="round"/>
<path d="M107.842 34.579V43.7369H101.737" stroke="black" stroke-width="2" stroke-linejoin="round"/>
<path d="M40.6842 4.05261V5.88419V43.7368" stroke="black" stroke-width="2" stroke-linejoin="round"/>
<path d="M31.5263 43.7369V13.3937V13.2106" stroke="black" stroke-width="2" stroke-linejoin="round"/>
<path d="M77.3158 4.05261V5.88419V43.7368" stroke="black" stroke-width="2" stroke-linejoin="round"/>
<path d="M86.4736 43.7369V13.3937V13.2106" stroke="black" stroke-width="2" stroke-linejoin="round"/>
<path d="M37.6316 147.526V135.316H34.579H22.3684H19.3158V147.526" stroke="black" stroke-width="2" stroke-linejoin="round"/>
<path d="M98.6842 147.526V135.316H95.6315H83.421H80.3684V147.526" stroke="black" stroke-width="2" stroke-linejoin="round"/>
<path d="M22.3684 135.316V118.709V117" stroke="black" stroke-width="2" stroke-linejoin="round"/>
<path d="M34.579 135.316V116.237V113.947" stroke="black" stroke-width="2" stroke-linejoin="round"/>
<path d="M83.421 135.316V116.237V113.947" stroke="black" stroke-width="2" stroke-linejoin="round"/>
<path d="M95.6315 135.316V118.709V117" stroke="black" stroke-width="2" stroke-linejoin="round"/>
<path d="M43.7368 168.895V178.053H34.579H22.3684H13.2106V159.737V147.526H19.3158H37.6316H43.7368V156.684V159.737V168.895Z" stroke="black" stroke-width="2" stroke-linejoin="round"/>
<path d="M13.2106 159.737L28.4737 162.789L43.7368 159.737" stroke="black" stroke-width="2" stroke-linejoin="round"/>
<path d="M104.789 159.737V178.053H95.6315H83.421H74.2631V168.895V159.737V156.684V147.526H80.3684H98.6842H104.789V159.737Z" stroke="black" stroke-width="2" stroke-linejoin="round"/>
<path d="M74.2631 159.737L89.5263 162.789L104.789 159.737" stroke="black" stroke-width="2" stroke-linejoin="round"/>
<path d="M43.7368 156.684H74.2631" stroke="black" stroke-width="2" stroke-linejoin="round"/>
<path d="M43.7368 168.895H74.2631" stroke="black" stroke-width="2" stroke-linejoin="round"/>
<path d="M83.421 178.052V190.263" stroke="black" stroke-width="2" stroke-linejoin="round"/>
<path d="M95.6315 178.052V190.263" stroke="black" stroke-width="2" stroke-linejoin="round"/>
<path d="M22.3684 178.052V190.263" stroke="black" stroke-width="2" stroke-linejoin="round"/>
<path d="M34.579 178.052V190.263" stroke="black" stroke-width="2" stroke-linejoin="round"/>
<path d="M31.5263 52.8947L31.9232 55.9473L34.2126 74.2631L34.579 77.3157C34.5703 80.8222 35.3217 84.289 36.7814 87.4772C38.2412 90.6655 40.3746 93.4995 43.0347 95.7841C44.2181 96.822 45.5073 97.7326 46.8811 98.5009C50.5681 100.621 54.7468 101.737 59 101.737C63.2532 101.737 67.4319 100.621 71.1189 98.5009C72.4927 97.7326 73.7819 96.822 74.9652 95.7841C75.4245 95.4119 75.8627 95.0144 76.2779 94.5936C80.8526 90.0072 83.4214 83.7936 83.421 77.3157L83.8179 74.2631L86.1073 55.9473L86.4737 52.8947" stroke="black" stroke-width="2" stroke-linejoin="round"/>
<path d="M46.7895 98.6841V108.788C46.7872 109.474 46.6738 110.154 46.4537 110.803C46.0947 111.837 45.4625 112.755 44.6241 113.459C43.7857 114.163 42.7724 114.627 41.6916 114.802L34.579 116.237L22.3684 118.709L10.7074 121.06C7.95905 121.632 5.49232 123.135 3.72375 125.315C1.95519 127.495 0.99313 130.219 1.00004 133.026V190.263H117V133.026C117.007 130.219 116.045 127.495 114.276 125.315C112.508 123.135 110.041 121.632 107.293 121.06L95.6315 118.709L83.421 116.237L76.3084 114.802C75.2276 114.627 74.2143 114.163 73.3759 113.459C72.5375 112.755 71.9053 111.837 71.5463 110.803C71.3262 110.154 71.2128 109.474 71.2105 108.788V98.6841" stroke="black" stroke-width="2" stroke-linejoin="round"/>
<path d="M83.421 55.9473H86.4736C88.9025 55.9473 91.2318 56.9121 92.9492 58.6295C94.6667 60.347 95.6315 62.6763 95.6315 65.1052C95.6315 67.534 94.6667 69.8633 92.9492 71.5808C91.2318 73.2982 88.9025 74.263 86.4736 74.263H83.421" stroke="black" stroke-width="2" stroke-linejoin="round"/>
<path d="M34.579 55.9473H31.5263C29.0975 55.9473 26.7682 56.9121 25.0507 58.6295C23.3333 60.347 22.3684 62.6763 22.3684 65.1052C22.3684 67.534 23.3333 69.8633 25.0507 71.5808C26.7682 73.2982 29.0975 74.263 31.5263 74.263H34.579" stroke="black" stroke-width="2" stroke-linejoin="round"/>
<path d="M34.579 74.2631H46.7895L52.8947 68.1578H65.1052L71.2105 74.2631H83.421" stroke="black" stroke-width="2" stroke-linejoin="round"/>
<path d="M46.7895 110.895L52.8947 117H59H65.1052L71.2105 110.895" stroke="black" stroke-width="2" stroke-linejoin="round"/>
<path d="M59 117V129.21" stroke="black" stroke-width="2" stroke-linejoin="round"/>
<path d="M59 135.316V141.421" stroke="black" stroke-width="2" stroke-linejoin="round"/>
<path d="M95.6315 52.8947L101.737 101.737L74.9652 95.7841L74.2631 95.6315" stroke="black" stroke-width="2" stroke-linejoin="round"/>
<path d="M22.3684 52.8947L16.2632 101.737L43.0347 95.7841L43.7368 95.6315" stroke="black" stroke-width="2" stroke-linejoin="round"/>
</svg>
