<svg width="170" height="145" viewBox="0 0 170 145" fill="none" xmlns="http://www.w3.org/2000/svg">
<path d="M22.34 126L17.7 140H14.94L11.48 129.64L7.96 140H5.18L0.54 126H3.24L6.72 136.64L10.34 126H12.74L16.28 136.7L19.86 126H22.34ZM27.4973 129.2C29.0707 129.2 30.2707 129.58 31.0973 130.34C31.9373 131.087 32.3573 132.22 32.3573 133.74V140H29.9973V138.7C29.6907 139.167 29.2507 139.527 28.6773 139.78C28.1173 140.02 27.4373 140.14 26.6373 140.14C25.8373 140.14 25.1373 140.007 24.5373 139.74C23.9373 139.46 23.4707 139.08 23.1373 138.6C22.8173 138.107 22.6573 137.553 22.6573 136.94C22.6573 135.98 23.0107 135.213 23.7173 134.64C24.4373 134.053 25.564 133.76 27.0973 133.76H29.8573V133.6C29.8573 132.853 29.6307 132.28 29.1773 131.88C28.7373 131.48 28.0773 131.28 27.1973 131.28C26.5973 131.28 26.004 131.373 25.4173 131.56C24.844 131.747 24.3573 132.007 23.9573 132.34L22.9773 130.52C23.5373 130.093 24.2107 129.767 24.9973 129.54C25.784 129.313 26.6173 129.2 27.4973 129.2ZM27.1573 138.32C27.784 138.32 28.3373 138.18 28.8173 137.9C29.3107 137.607 29.6573 137.193 29.8573 136.66V135.42H27.2773C25.8373 135.42 25.1173 135.893 25.1173 136.84C25.1173 137.293 25.2973 137.653 25.6573 137.92C26.0173 138.187 26.5173 138.32 27.1573 138.32ZM41.9858 139.42C41.6924 139.66 41.3324 139.84 40.9058 139.96C40.4924 140.08 40.0524 140.14 39.5858 140.14C38.4124 140.14 37.5058 139.833 36.8658 139.22C36.2258 138.607 35.9058 137.713 35.9058 136.54V131.4H34.1458V129.4H35.9058V126.96H38.4058V129.4H41.2658V131.4H38.4058V136.48C38.4058 137 38.5324 137.4 38.7858 137.68C39.0391 137.947 39.4058 138.08 39.8858 138.08C40.4458 138.08 40.9124 137.933 41.2858 137.64L41.9858 139.42ZM48.5908 140.14C47.4841 140.14 46.4908 139.907 45.6108 139.44C44.7308 138.973 44.0441 138.327 43.5508 137.5C43.0574 136.66 42.8108 135.713 42.8108 134.66C42.8108 133.607 43.0574 132.667 43.5508 131.84C44.0441 131.013 44.7241 130.367 45.5908 129.9C46.4708 129.433 47.4708 129.2 48.5908 129.2C49.6441 129.2 50.5641 129.413 51.3508 129.84C52.1508 130.267 52.7508 130.88 53.1508 131.68L51.2308 132.8C50.9241 132.307 50.5374 131.94 50.0708 131.7C49.6174 131.447 49.1174 131.32 48.5708 131.32C47.6374 131.32 46.8641 131.627 46.2508 132.24C45.6374 132.84 45.3308 133.647 45.3308 134.66C45.3308 135.673 45.6308 136.487 46.2308 137.1C46.8441 137.7 47.6241 138 48.5708 138C49.1174 138 49.6174 137.88 50.0708 137.64C50.5374 137.387 50.9241 137.013 51.2308 136.52L53.1508 137.64C52.7374 138.44 52.1308 139.06 51.3308 139.5C50.5441 139.927 49.6308 140.14 48.5908 140.14ZM61.2742 129.2C62.6209 129.2 63.7009 129.593 64.5142 130.38C65.3276 131.167 65.7342 132.333 65.7342 133.88V140H63.2342V134.2C63.2342 133.267 63.0142 132.567 62.5742 132.1C62.1342 131.62 61.5076 131.38 60.6942 131.38C59.7742 131.38 59.0476 131.66 58.5142 132.22C57.9809 132.767 57.7142 133.56 57.7142 134.6V140H55.2142V125.16H57.7142V130.56C58.1276 130.12 58.6342 129.787 59.2342 129.56C59.8476 129.32 60.5276 129.2 61.2742 129.2ZM80.853 139.42C80.5596 139.66 80.1996 139.84 79.773 139.96C79.3596 140.08 78.9196 140.14 78.453 140.14C77.2796 140.14 76.373 139.833 75.733 139.22C75.093 138.607 74.773 137.713 74.773 136.54V131.4H73.013V129.4H74.773V126.96H77.273V129.4H80.133V131.4H77.273V136.48C77.273 137 77.3996 137.4 77.653 137.68C77.9063 137.947 78.273 138.08 78.753 138.08C79.313 138.08 79.7796 137.933 80.153 137.64L80.853 139.42ZM88.9695 129.2C90.3162 129.2 91.3962 129.593 92.2095 130.38C93.0229 131.167 93.4295 132.333 93.4295 133.88V140H90.9295V134.2C90.9295 133.267 90.7095 132.567 90.2695 132.1C89.8295 131.62 89.2029 131.38 88.3895 131.38C87.4695 131.38 86.7429 131.66 86.2095 132.22C85.6762 132.767 85.4095 133.56 85.4095 134.6V140H82.9095V125.16H85.4095V130.56C85.8229 130.12 86.3295 129.787 86.9295 129.56C87.5429 129.32 88.2229 129.2 88.9695 129.2ZM106.739 134.72C106.739 134.893 106.725 135.14 106.699 135.46H98.3186C98.4653 136.247 98.8453 136.873 99.4586 137.34C100.085 137.793 100.859 138.02 101.779 138.02C102.952 138.02 103.919 137.633 104.679 136.86L106.019 138.4C105.539 138.973 104.932 139.407 104.199 139.7C103.465 139.993 102.639 140.14 101.719 140.14C100.545 140.14 99.5119 139.907 98.6186 139.44C97.7253 138.973 97.0319 138.327 96.5386 137.5C96.0586 136.66 95.8186 135.713 95.8186 134.66C95.8186 133.62 96.0519 132.687 96.5186 131.86C96.9986 131.02 97.6586 130.367 98.4986 129.9C99.3386 129.433 100.285 129.2 101.339 129.2C102.379 129.2 103.305 129.433 104.119 129.9C104.945 130.353 105.585 131 106.039 131.84C106.505 132.667 106.739 133.627 106.739 134.72ZM101.339 131.2C100.539 131.2 99.8586 131.44 99.2986 131.92C98.7519 132.387 98.4186 133.013 98.2986 133.8H104.359C104.252 133.027 103.925 132.4 103.379 131.92C102.832 131.44 102.152 131.2 101.339 131.2ZM124.667 129.32L120.087 140H117.507L112.927 129.32H115.527L118.847 137.24L122.267 129.32H124.667ZM126.23 129.32H128.73V140H126.23V129.32ZM127.49 127.56C127.037 127.56 126.657 127.42 126.35 127.14C126.043 126.847 125.89 126.487 125.89 126.06C125.89 125.633 126.043 125.28 126.35 125C126.657 124.707 127.037 124.56 127.49 124.56C127.943 124.56 128.323 124.7 128.63 124.98C128.937 125.247 129.09 125.587 129.09 126C129.09 126.44 128.937 126.813 128.63 127.12C128.337 127.413 127.957 127.56 127.49 127.56ZM142.471 125.16V140H140.071V138.62C139.658 139.127 139.144 139.507 138.531 139.76C137.931 140.013 137.264 140.14 136.531 140.14C135.504 140.14 134.578 139.913 133.751 139.46C132.938 139.007 132.298 138.367 131.831 137.54C131.364 136.7 131.131 135.74 131.131 134.66C131.131 133.58 131.364 132.627 131.831 131.8C132.298 130.973 132.938 130.333 133.751 129.88C134.578 129.427 135.504 129.2 136.531 129.2C137.238 129.2 137.884 129.32 138.471 129.56C139.058 129.8 139.558 130.16 139.971 130.64V125.16H142.471ZM136.831 138C137.431 138 137.971 137.867 138.451 137.6C138.931 137.32 139.311 136.927 139.591 136.42C139.871 135.913 140.011 135.327 140.011 134.66C140.011 133.993 139.871 133.407 139.591 132.9C139.311 132.393 138.931 132.007 138.451 131.74C137.971 131.46 137.431 131.32 136.831 131.32C136.231 131.32 135.691 131.46 135.211 131.74C134.731 132.007 134.351 132.393 134.071 132.9C133.791 133.407 133.651 133.993 133.651 134.66C133.651 135.327 133.791 135.913 134.071 136.42C134.351 136.927 134.731 137.32 135.211 137.6C135.691 137.867 136.231 138 136.831 138ZM155.782 134.72C155.782 134.893 155.768 135.14 155.742 135.46H147.362C147.508 136.247 147.888 136.873 148.502 137.34C149.128 137.793 149.902 138.02 150.822 138.02C151.995 138.02 152.962 137.633 153.722 136.86L155.062 138.4C154.582 138.973 153.975 139.407 153.242 139.7C152.508 139.993 151.682 140.14 150.762 140.14C149.588 140.14 148.555 139.907 147.662 139.44C146.768 138.973 146.075 138.327 145.582 137.5C145.102 136.66 144.862 135.713 144.862 134.66C144.862 133.62 145.095 132.687 145.562 131.86C146.042 131.02 146.702 130.367 147.542 129.9C148.382 129.433 149.328 129.2 150.382 129.2C151.422 129.2 152.348 129.433 153.162 129.9C153.988 130.353 154.628 131 155.082 131.84C155.548 132.667 155.782 133.627 155.782 134.72ZM150.382 131.2C149.582 131.2 148.902 131.44 148.342 131.92C147.795 132.387 147.462 133.013 147.342 133.8H153.402C153.295 133.027 152.968 132.4 152.422 131.92C151.875 131.44 151.195 131.2 150.382 131.2ZM162.983 140.14C161.903 140.14 160.93 139.907 160.063 139.44C159.196 138.973 158.516 138.327 158.023 137.5C157.543 136.66 157.303 135.713 157.303 134.66C157.303 133.607 157.543 132.667 158.023 131.84C158.516 131.013 159.196 130.367 160.063 129.9C160.93 129.433 161.903 129.2 162.983 129.2C164.076 129.2 165.056 129.433 165.923 129.9C166.79 130.367 167.463 131.013 167.943 131.84C168.436 132.667 168.683 133.607 168.683 134.66C168.683 135.713 168.436 136.66 167.943 137.5C167.463 138.327 166.79 138.973 165.923 139.44C165.056 139.907 164.076 140.14 162.983 140.14ZM162.983 138C163.903 138 164.663 137.693 165.263 137.08C165.863 136.467 166.163 135.66 166.163 134.66C166.163 133.66 165.863 132.853 165.263 132.24C164.663 131.627 163.903 131.32 162.983 131.32C162.063 131.32 161.303 131.627 160.703 132.24C160.116 132.853 159.823 133.66 159.823 134.66C159.823 135.66 160.116 136.467 160.703 137.08C161.303 137.693 162.063 138 162.983 138Z" fill="black"/>
<rect x="14" width="133" height="108" rx="23" fill="#1E1630"/>
<path d="M74 41V69L96 55L74 41Z" fill="white"/>
</svg>
